_________________________  Visit us at _________________________
  
http://p2pdl.com  ____________________________  http://p2pdl.com

Gangs of Wasseypur 2012 BRRip 720p x264 Hindi ESubs - ViZNU

Genre: Action | Crime | Drama | History | Thriller
Plot: Shahid Khan's vow to get his father's honor 
back turns him into the most feared man in the 
Indian town of Wasseypu.
drug-related murders and is forced to do the gang's bidding.
Director: Anurag Kashyap
Stars: Manoj Bajpayee, Richa Chadda, Nawazuddin Siddiqui
Rated: PG 13

Info: 
http://www.imdb.com/title/tt1954470/

General
Complete name                  : Gangs of Wasseypur 2012 BRRip 720p x264 Hindi ESubs - ViZNU.mp4
Format                         : MPEG-4
Format profile                 : Base Media
Codec ID                       : isom
File size                      : 953 MiB
Duration                       : 2h 41mn
Overall bit rate mode          : Variable
Overall bit rate               : 826 Kbps

Video
Format                         : AVC
Format/Info                    : Advanced Video Codec
Format profile                 : High 10@L4.1
Codec ID                       : avc1
Codec ID/Info                  : Advanced Video Coding
Bit rate                       : 783 Kbps
Width                          : 1 280 pixels
Height                         : 544 pixels
Display aspect ratio           : 2.35:1
Frame rate mode                : Constant
Frame rate                     : 24.000 fps
Bit depth                      : 10 bits
Scan type                      : Progressive
Bits/(Pixel*Frame)             : 0.047
Stream size                    : 903 MiB (95%)
Writing library                : x264 core 129 r2245 bc13772

Audio
Format                         : AAC
Format/Info                    : Advanced Audio Codec
Duration                       : 2h 41mn
Bit rate mode                  : Variable
Bit rate                       : 40.0 Kbps
Channel(s)                     : 2 channels
Channel positions              : Front: L R
Sampling rate                  : 44.1 KHz / 22.05 KHz
Compression mode               : Lossy
Stream size                    : 46.2 MiB (5%)
Language                       : Hindi

Subtitle                       : Yes (English)

Screens: 
http://ultraimg.com/images/wREj.jpg 
http://ultraimg.com/images/UH8h.jpg 
http://ultraimg.com/images/rcIl.jpg 
http://ultraimg.com/images/LoYDB.jpg

Thumbs: 
http://ultraimg.com/images/P6vKh.jpg

----------------------------------------------------------------------------------------------------
Encoded using revolutionary 10bit encoding, which enables us to provide you more crispier 
and sharper images at small sizes, just make sure you follow our instructions without a fault.
Recommend to you to use latest version of VLC player. Install K-Lite Codec Pack or shark007 codecs
in case of any kind of problem in playback (For non-VLC Media Player users). Alternatively, install
Core AVC codecs, the fastest decoder that there is coupled with Community Center Codec Pack and play
on Windows Media Player Classic. Check sample to be sure.
Enjoy!

Greets to: VYTO, a2zRG, MusiK_KinG, Kuroyukihime, TorDigger, Ash968, StyLishSaLH, Masta and staff members at
ExtraTorrent, TPB, H33T, KAT, 1337x, PublicHD, Ahashare, BTScene,LimeTorrents, TorrentMafia,
P2PDL, and all others.

Encoder Notes: Encoder Notes: Looking For Early Access To Anything You Can Provide DVDScr, R5, DVDR, BluRay, Direct
Audio, Music Releases and Seedboxes. We require dedicated servers, so as to do more and fast releases of movies.
If You Got anything to offer contact us at "prg@hush.com".